<svg xmlns="http://www.w3.org/2000/svg" width="260" height="346.667" viewBox="0 0 243.75002 324.99998"><path d="M2.718 322.107L0 319.214V5.436l2.893-2.718L5.786 0H83.6c46.541 0 78.703.475 80.025 1.183 1.215.65 19.74 19.165 41.167 41.144l38.958 39.961v237.276l-2.893 2.718-2.893 2.718H5.436l-2.718-2.893zm224.477-121.17l-.32-106.562-36.04-.625c-33.838-.587-36.148-.773-37.812-3.051-1.432-1.96-1.773-9.24-1.773-37.813V17.5h-135v290h211.264l-.32-106.562zm-184.4 59.017c-2.544-1.021-5.295-5.617-5.295-8.842 0-.674 1.38-2.606 3.068-4.294l3.068-3.068h156.478l3.068 3.068c3.893 3.893 3.893 7.47 0 11.364l-3.068 3.068-77.245-.08c-43.27-.044-78.489-.579-80.075-1.216zm-2.227-40.522c-3.687-3.687-3.887-6.893-.678-10.856l2.39-2.951h159.19l2.39 2.951c3.208 3.963 3.008 7.169-.68 10.856l-3.067 3.068H43.636l-3.068-3.068zm-.477-38.976c-2.96-3.761-3.024-4.154-1.397-8.433 2.042-5.372 7.216-5.965 48.364-5.539 34.992.363 37.871.561 40.313 2.772 3.336 3.022 3.397 8.726.129 11.994-2.399 2.399-4.167 2.5-43.66 2.5H42.682l-2.59-3.294zm0-90C37.704 87.422 37.5 85.514 37.5 66.25s.204-21.172 2.59-24.206l2.591-3.294h38.466c37.518 0 38.524.065 40.847 2.631 2.154 2.38 2.381 4.755 2.381 24.869s-.227 22.489-2.381 24.869c-2.323 2.566-3.33 2.631-40.847 2.631H42.681l-2.59-3.294zM107.5 66.25V55H55v22.5h52.5V66.25zm106.042 10.17c-.23-.594-10.401-11.371-22.604-23.95L168.75 29.6v47.9h22.604c12.432 0 22.417-.486 22.188-1.08z" fill="#7c7c7c"/></svg>