<svg xmlns="http://www.w3.org/2000/svg" width="219.086" height="336.664" viewBox="0 0 205.39273 315.62265"><path d="M97.817 314.12c-3.108-2.426-89.521-167.934-92.916-177.963-6.796-20.076-6.513-44.119.777-65.913C16.788 37.027 44.276 11.5 78.716 2.419c13.057-3.443 36.754-3.173 50 .569 35.394 9.999 63.228 37.698 73.096 72.743 5.411 19.214 4.631 44.252-1.946 62.491-3.053 8.466-88.113 171.407-91.497 175.273-2.231 2.548-7.674 2.87-10.552.625zm44.65-99.919c21.312-40.64 40.026-77.457 41.586-81.815 11.918-33.28.463-74.08-26.973-96.07-17.353-13.908-36.758-20.181-58.867-19.03-23.06 1.2-39.296 8.533-55.896 25.242-8.195 8.248-11.27 12.486-15.966 21.998-7.548 15.287-9.91 26.514-9.186 43.656.399 9.45 1.395 15.576 3.556 21.875 2.995 8.728 80.704 158.165 82.205 158.08.434-.023 18.228-33.295 39.54-73.936zM86.84 152.17c-11.843-3.944-22.932-12.53-29.386-22.755-9.397-14.885-10.796-35.848-3.441-51.555 14.044-29.993 48.882-40.876 76.72-23.965 18.036 10.956 28.472 33.499 25.054 54.123-3.083 18.606-14.767 34.131-31.447 41.785-10.634 4.88-26.876 5.905-37.5 2.367zm27.5-16.784c15.113-4.617 24.92-18.536 24.973-35.44.023-7.418-.596-10.111-3.795-16.513-4.374-8.753-8.975-13.1-18.5-17.477-5.788-2.661-8.01-3.002-16.395-2.517-10.774.624-17.398 3.633-24.656 11.2-13.328 13.896-13.044 37.3.622 51.463 10.22 10.589 23.106 13.758 37.751 9.284z" fill="#7c7c7c"/></svg>