<svg xmlns="http://www.w3.org/2000/svg" width="168.975" height="172.967" viewBox="0 0 158.41432 162.15626"><path d="M64.877 160.958c-15.798-3.141-30.032-10.758-41.387-22.146-9.515-9.543-15.451-19.098-20.016-32.22C.394 97.733 0 94.834 0 80.977c0-13.856.393-16.755 3.474-25.613 4.59-13.192 10.573-22.793 20.103-32.253C37.653 9.14 54.815 1.362 74.264.145c37.344-2.337 72.589 23.788 82.07 60.833 1.224 4.78 2.08 13.015 2.08 20 0 22.931-7.277 40.575-23.513 57.01-7.951 8.048-12.198 11.204-20.637 15.334-16.097 7.88-34.133 10.669-49.387 7.636zm-6.505-15.495c-2.722-3.093-6.783-9.063-9.024-13.267-4.562-8.56-4.842-8.603-13.366-2.088-6.048 4.623-5.946 4.9 4.324 11.717 6.49 4.307 21.455 10.75 22.55 9.707.257-.245-1.761-2.976-4.484-6.069zm51.517.834c7.252-3.652 16.875-10.316 16.875-11.684 0-.518-3.202-2.945-7.117-5.394l-7.117-4.452-4.1 7.674c-2.255 4.22-6.359 10.353-9.12 13.626l-5.018 5.952 4.674-1.287c2.57-.707 7.486-2.703 10.923-4.435zm-9.804-15.675c2.427-3.977 4.131-7.966 3.786-8.865-.656-1.71-13.416-5.779-18.126-5.779-2.675 0-2.73.352-2.73 17.141v17.14l6.328-6.202c3.48-3.412 8.315-9.458 10.742-13.435zm-25.82 1.19v-16.665l-6.563.941c-6.795.975-14.688 3.406-14.688 4.525 0 4.151 17.104 27.865 20.097 27.865.647 0 1.153-7.322 1.153-16.665zM38.51 117.854l3.405-2.5-1.835-8.125c-1.01-4.468-2.21-11.359-2.666-15.312l-.83-7.188H7.67l.808 6.876c1.058 9.003 5.84 21.525 11.447 29.97l4.494 6.77 5.343-3.995a1588.69 1588.69 0 0 1 8.749-6.496zm102.728-1.344c3.95-7.064 9.275-24.011 9.275-29.52 0-2.174-1.043-2.315-14.687-1.988l-14.688.352-.75 7.5c-.413 4.125-1.518 10.875-2.454 15-.937 4.125-1.724 7.9-1.75 8.386-.025.488 3.61 3.365 8.08 6.394 9.573 6.489 10.008 6.332 16.974-6.124zm-32.06-7.718c1.808-6.726 3.823-21.821 3.074-23.034-.35-.566-7.072-1.029-14.937-1.029H83.014v22.041l7.813 1.577c4.297.866 9.5 2.33 11.562 3.252 5.344 2.39 5.398 2.368 6.79-2.807zm-51.366.921c4.358-1.366 9.843-2.484 12.188-2.484h4.263v-22.5H45.158l.753 7.206c.68 6.495 3.249 20.319 3.77 20.278.114-.009 3.774-1.134 8.132-2.5zM37.415 70.041c.457-3.953 1.622-10.738 2.59-15.078.968-4.34 1.759-8.558 1.758-9.375 0-.816-2.672-3.041-5.937-4.944s-7.133-4.316-8.594-5.363c-2.542-1.82-2.858-1.602-7.23 4.985C14.325 48.82 9.542 61.31 8.478 70.353l-.808 6.875h28.915l.83-7.187zm36.85-3.953v-11.14l-5.243-.886c-2.884-.487-8.216-1.908-11.849-3.158-3.726-1.282-6.913-1.775-7.311-1.13-1.072 1.733-4.348 19.679-4.348 23.814v3.64h28.75v-11.14zm37.707 4.085c-.663-10.203-3.25-19.877-5.199-19.434-.932.211-4.808 1.196-8.614 2.187-3.806.991-8.77 1.802-11.032 1.802h-4.113v22.58l14.688-.352 14.687-.353-.417-6.43zm38.542 4.755c0-5.5-5.347-22.455-9.325-29.57-6.239-11.155-7.222-11.731-12.892-7.558-2.562 1.885-6.402 4.503-8.533 5.816l-3.876 2.39 1.72 6.548c.946 3.602 2.034 9.924 2.419 14.05 1.058 11.353-.044 10.624 16.073 10.624 13.163 0 14.414-.2 14.414-2.3zm-51.6-30.96c6.461-1.77 6.51-1.82 5.054-5.201-2.847-6.603-9.465-15.972-15.18-21.486l-5.774-5.573v35.363l4.688-.657c2.578-.362 7.624-1.462 11.212-2.446zm-24.65-14.24c0-9.089-.508-16.25-1.153-16.25-2.058 0-12.397 12.78-16.371 20.236-2.13 3.995-3.677 7.264-3.438 7.264.238 0 3.506 1.105 7.26 2.455 3.755 1.35 8.374 2.476 10.265 2.5l3.437.045v-16.25zm-24.87-.055c2.216-4.155 6.186-10.007 8.824-13.004s4.796-5.748 4.796-6.113c0-.365-3.316.457-7.37 1.825-7.605 2.569-22.67 11.843-23.556 14.502-.361 1.083 10.428 9.59 13.04 10.282.132.035 2.052-3.336 4.267-7.492zm71.266 3.074c3.357-2.465 6.087-4.855 6.066-5.312-.128-2.758-19.016-13.803-27.687-16.19l-4.6-1.267 5.632 6.915c3.097 3.802 7.113 9.934 8.923 13.625 1.81 3.69 3.802 6.71 4.426 6.71.624 0 3.882-2.016 7.24-4.481z"/></svg>