<svg xmlns="http://www.w3.org/2000/svg" viewBox="0 0 178.03079 178.56585" height="190.47" width="189.9"><path d="M66.2 176.142c-17.723-4.694-29.994-11.966-42.54-25.212-9.612-10.148-14.638-18.138-19.654-31.24C.101 109.484 0 108.717 0 89.22c0-19.496.1-20.263 4.006-30.467 5.006-13.078 10.023-21.062 19.655-31.28C33.509 17.027 46.41 8.658 59.448 4.26 67.833 1.43 72.887.6 84.526.131c18.454-.74 29.473 1.555 45.189 9.414 9.32 4.66 13.499 7.763 22.172 16.46 17.646 17.693 26.144 38.24 26.144 63.216 0 15.284-2.58 26.32-9.461 40.464-10.901 22.408-32.865 40.144-57.525 46.45-12.66 3.239-32.632 3.241-44.846.007zm45.643-11.158c23.862-7.491 44.14-27.67 52.004-51.744 4.803-14.704 4.803-33.333 0-48.037C145.401 8.727 74.765-8.41 33.09 33.478c-31.511 31.674-31.511 79.813 0 111.487 10.708 10.762 24.657 18.603 38.735 21.771 10.79 2.429 29.282 1.62 40.02-1.752zm-41.269-9.445c-22.545-6.346-40.744-23.772-47.627-45.602-3.586-11.378-3.586-30.053 0-41.43 4.534-14.382 15.93-29.095 29.067-37.53 10.184-6.539 19.03-9.022 34.215-9.604 12.394-.475 14.768-.197 23.614 2.773 28.917 9.707 46.981 34.729 46.981 65.075 0 30.177-18.08 55.374-46.606 64.95-7.731 2.595-11.704 3.155-21.74 3.064-6.753-.062-14.81-.825-17.904-1.696zm31.634-10.057c22.976-5.985 40.087-24.756 43.671-47.91 6.145-39.7-32.104-74.66-70.688-64.611-21.058 5.485-36.365 20.497-42.623 41.8-5.494 18.705.54 40.32 15.406 55.185 14.658 14.659 35.11 20.517 54.234 15.536zm-17.17-52.6c-1.518-1.518-1.96-4.712-1.945-14.062.01-6.654.433-12.702.938-13.44 1.672-2.442 4.97-2.87 7.65-.993 2.257 1.58 2.643 3.112 2.643 10.476v8.624l8.916.367c7.354.303 9.212.815 10.608 2.925 1.442 2.179 1.407 2.967-.236 5.313-1.767 2.523-2.967 2.754-14.27 2.754-9.55 0-12.783-.443-14.304-1.964z" fill="#fefefe"/></svg>