<svg xmlns="http://www.w3.org/2000/svg" viewBox="0 0 178.81157 178.62481" height="190.533" width="190.732"><path d="M43.156 157.125l-42.5-21.5-.328-45.926L0 43.772l43.758-21.886C67.826 9.85 88.367 0 89.406 0c1.039 0 21.58 9.849 45.647 21.886l43.759 21.886-.328 45.927-.328 45.926-42.5 21.5c-26.906 13.61-43.876 21.5-46.25 21.5-2.374 0-19.345-7.89-46.25-21.5zm40.625-28.37V92.507L47.539 74.38c-19.933-9.97-36.527-18.13-36.875-18.13-.348 0-.633 16.176-.633 35.947v35.948l36.562 18.357c20.11 10.096 36.703 18.388 36.875 18.427.172.04.313-16.24.313-36.175zm-38.99-2.817l-22.885-11.563-.353-13.997c-.5-19.86-1.403-19.71 28.441-4.771l23.787 11.906v13.029c0 10.178-.43 13.46-1.965 14.994-1.08 1.08-2.453 1.964-3.051 1.964-.598 0-11.386-5.203-23.973-11.562zm17.74-7.803c0-4.327-.133-4.432-14.981-11.875-8.24-4.13-15.27-7.51-15.625-7.51-.354 0-.644 1.839-.644 4.086 0 3.972.426 4.3 15.312 11.803 8.422 4.244 15.453 7.749 15.625 7.789.172.04.313-1.892.313-4.293zm106.25-25.938c0-19.77-.285-35.947-.634-35.947-.348 0-16.942 8.158-36.875 18.13L95.031 92.507v72.486l36.875-18.424 36.875-18.425V92.197zM83.169 50.32L46.96 32.206l-15.027 7.485-15.027 7.486 36.25 18.137 36.25 18.137 14.985-7.51 14.986-7.51L83.17 50.32zm42.5-21.25L89.46 10.956l-15.027 7.485-15.027 7.486 36.25 18.137 36.25 18.137 14.986-7.51 14.985-7.51L125.67 29.07z" fill="#fefefe"/></svg>