<svg xmlns="http://www.w3.org/2000/svg" viewBox="0 0 195.80241 118.75" height="126.667" width="208.856"><path d="M12.426 114.982c-2.514-2.072-6.299-7.225-8.41-11.45-6.859-13.725-4.8-30.327 5.164-41.647 6.02-6.84 14.514-11.436 23.282-12.6l6.378-.846 2.034-6.994C43.849 31.21 47.166 25.39 54.36 17.784 65.747 5.744 79.334 0 96.427 0c21.762 0 41.28 11.572 51.266 30.396 2.842 5.358 3.412 5.75 10.058 6.92 15.304 2.697 27.53 11.881 34.377 25.825 3.193 6.503 3.674 8.88 3.674 18.135 0 9.515-.438 11.542-4.108 18.997-2.55 5.18-6.291 10.267-9.864 13.411l-5.755 5.066H16.997l-4.571-3.768zm163.846-11.701c5.647-5.226 9.263-13.582 9.263-21.406 0-15.018-12.61-30.474-27.48-33.683l-3.998-.862-.377 7.272c-.338 6.51-.68 7.316-3.259 7.681-4.44.63-6.102-1.672-7.01-9.707-1.764-15.59-12.911-30.882-27.481-37.7-11.22-5.25-21.828-6.052-32.882-2.486-15.52 5.007-25.762 14.99-31.255 30.463l-2.759 7.772 4.99 2.455c5.387 2.65 7.475 6.946 4.89 10.061-2.044 2.463-3.553 2.353-10.631-.778-13.454-5.952-27.944-.703-34.668 12.556-5.352 10.554-4.113 20.309 3.672 28.926l4.442 4.917 75.162-.788 75.161-.788 4.22-3.905zm-51.406-50.442c-1.203-.287-2.52-2.028-2.929-3.868-1.495-6.742-2.136-8.415-4.522-11.802-2.941-4.176-8.172-7.032-15.017-8.2-9.286-1.586-9.754-9.195-.614-9.977 14.282-1.222 28.957 11.534 29.92 26.009.274 4.124-.185 5.574-2.152 6.8-1.375.858-3.484 1.325-4.686 1.038z" fill="#fefefe"/></svg>